<?xml version="1.0" encoding="UTF-8"?>
<svg xmlns="http://www.w3.org/2000/svg" width="64" height="64" viewBox="0 0 24 24"><path fill="#cbd5ff" d="M12 8a4 4 0 100 8 4 4 0 000-8zm9.4 4.8l-1.6-1a7.9 7.9 0 000-1.6l1.6-1a.5.5 0 00.1-.6l-1.9-3.3a.5.5 0 00-.6-.2l-1.9.8a8 8 0 00-1.4-.8l-.3-2.1A.5.5 0 0013.4 2h-3.8a.5.5 0 00-.5.4l-.3 2.1c-.5.2-1 .5-1.4.8L5 4.3a.5.5 0 00-.6.2L2.5 7.8a.5.5 0 00.1.6l1.6 1c0 .5 0 1 .1 1.6l-1.6 1a.5.5 0 00-.1.6l1.9 3.3a.5.5 0 00.6.2l1.9-.8c.4.3.9.6 1.4.8l.3 2.1c0 .2.2.4.5.4h3.8c.2 0 .4-.2.5-.4l.3-2.1c.5-.2 1-.5 1.4-.8l1.9.8c.2.1.4 0 .6-.2l1.9-3.3a.5.5 0 00-.1-.6z"/></svg>